<svg width="32" height="32" viewBox="0 0 32 32" xmlns="http://www.w3.org/2000/svg">
  <defs>
    <linearGradient id="g1" x1="0" y1="0" x2="1" y2="1">
      <stop offset="0%" stop-color="#5b7cfa"/>
      <stop offset="100%" stop-color="#a78bfa"/>
    </linearGradient>
  </defs>
  <rect x="2" y="2" width="28" height="28" rx="9" fill="url(#g1)"/>
  <path d="M10 20.5c1.1 1.7 2.9 2.7 5 2.7 3.3 0 6-2.5 6-5.8 0-2.7-1.8-4.5-4-5.3l-1.6-.6c-1.4-.5-2.2-1.1-2.2-2.1 0-1.2 1-2.1 2.5-2.1 1.1 0 2 .4 2.7 1.3l1.5-1.1C18.9 8 17.6 7.2 15.7 7c-2.8-.3-5.1 1.4-5.4 3.9-.3 2.3 1.1 3.9 3.5 4.8l1.7.6c1.7.6 2.6 1.4 2.6 2.7 0 1.5-1.2 2.7-3.1 2.7-1.7 0-3-.8-3.8-2.1z" fill="#ffffff" fill-opacity="0.96"/>
</svg>
